<svg width="24" height="24" viewBox="0 0 24 24" fill="none" xmlns="http://www.w3.org/2000/svg">
<path fill-rule="evenodd" clip-rule="evenodd" d="M8 9C8 7.93913 8.42143 6.92172 9.17157 6.17157C9.92172 5.42143 10.9391 5 12 5C13.0609 5 14.0783 5.42143 14.8284 6.17157C15.5786 6.92172 16 7.93913 16 9C16 10.0609 15.5786 11.0783 14.8284 11.8284C14.0783 12.5786 13.0609 13 12 13C10.9391 13 9.92172 12.5786 9.17157 11.8284C8.42143 11.0783 8 10.0609 8 9ZM8 15C6.67392 15 5.40215 15.5268 4.46447 16.4645C3.52678 17.4021 3 18.6739 3 20C3 20.7956 3.31607 21.5587 3.87868 22.1213C4.44129 22.6839 5.20435 23 6 23H18C18.7956 23 19.5587 22.6839 20.1213 22.1213C20.6839 21.5587 21 20.7956 21 20C21 18.6739 20.4732 17.4021 19.5355 16.4645C18.5979 15.5268 17.3261 15 16 15H8Z" fill="white"/>
</svg>
